<svg xmlns="http://www.w3.org/2000/svg" viewBox="0 0 900 520" width="100%" height="520">
  <defs>
    <linearGradient id="binanceBg" x1="0%" y1="0%" x2="100%" y2="100%">
      <stop offset="0%" stop-color="#0B0E11" />
      <stop offset="50%" stop-color="#181A20" />
      <stop offset="100%" stop-color="#0B0E11" />
    </linearGradient>

    <filter id="glowYellow" x="-20%" y="-20%" width="140%" height="140%">
      <feGaussianBlur stdDeviation="4" result="blur" />
      <feMerge><feMergeNode in="blur" /><feMergeNode in="SourceGraphic" /></feMerge>
    </filter>
    <filter id="glowGreen" x="-20%" y="-20%" width="140%" height="140%">
      <feGaussianBlur stdDeviation="4" result="blur" />
      <feMerge><feMergeNode in="blur" /><feMergeNode in="SourceGraphic" /></feMerge>
    </filter>

    <pattern id="grid" width="30" height="30" patternUnits="userSpaceOnUse">
      <path d="M 30 0 L 0 0 0 30" fill="none" stroke="#2B313A" stroke-width="0.5" stroke-dasharray="2,2" opacity="0.4" />
    </pattern>
  </defs>

  <rect width="900" height="520" rx="10" fill="url(#binanceBg)" stroke="#F0B90B" stroke-width="1.6" filter="url(#glowYellow)" />
  <rect width="900" height="520" rx="10" fill="url(#grid)" />

  <!-- TOP TITLE BAR -->
  <rect x="14" y="14" width="872" height="36" rx="6" fill="#181A20" stroke="#2B313A" stroke-width="1" />
  <text x="30" y="36" font-family="'JetBrains Mono', monospace" font-size="12" font-weight="900" fill="#F0B90B" letter-spacing="1">
    ⚙️ LIVE CI/CD COMPILER CONTROLS &amp; DEVOPS POSITION RISK PANEL
  </text>
  <circle cx="865" cy="32" r="4" fill="#0ECB81" filter="url(#glowGreen)">
    <animate attributeName="opacity" values="1;0.2;1" dur="0.4s" repeatCount="indefinite" />
  </circle>

  <!-- LEFT: COMPILER & CI/CD BUILD CONTROL FORM (WIDTH 350) -->
  <g transform="translate(25, 65)" font-family="'JetBrains Mono', monospace">
    <rect x="0" y="0" width="340" height="420" rx="6" fill="#181A20" stroke="#2B313A" stroke-width="1" />
    
    <!-- Build Profile Tabs -->
    <g transform="translate(15, 15)">
      <rect x="0" y="0" width="90" height="24" rx="4" fill="#F0B90B" />
      <text x="45" y="16" font-size="10" font-weight="900" fill="#0B0E11" text-anchor="middle">RELEASE</text>

      <rect x="100" y="0" width="90" height="24" rx="4" fill="#2B313A" />
      <text x="145" y="16" font-size="10" font-weight="bold" fill="#848E9C" text-anchor="middle">DEBUG</text>

      <rect x="200" y="0" width="100" height="24" rx="4" fill="#2B313A" />
      <text x="250" y="16" font-size="10" font-weight="bold" fill="#848E9C" text-anchor="middle">BENCHMARK</text>
    </g>

    <!-- Target Triple Box -->
    <g transform="translate(15, 55)" font-size="11" font-weight="bold">
      <text x="0" y="0" fill="#848E9C">Target Triple</text>
      <rect x="0" y="8" width="310" height="32" rx="4" fill="#1E2329" stroke="#2B313A" stroke-width="1" />
      <text x="12" y="29" fill="#EAECEF">x86_64-unknown-linux-gnu</text>
      <text x="295" y="29" fill="#848E9C" text-anchor="end">ARCH</text>
    </g>

    <!-- Optimization Level Box -->
    <g transform="translate(15, 115)" font-size="11" font-weight="bold">
      <text x="0" y="0" fill="#848E9C">Optimization Level</text>
      <rect x="0" y="8" width="310" height="32" rx="4" fill="#1E2329" stroke="#2B313A" stroke-width="1" />
      <text x="12" y="29" fill="#0ECB81">-O3 (Max Speed &amp; LTO)</text>
      <text x="295" y="29" fill="#848E9C" text-anchor="end">FLAGS</text>
    </g>

    <!-- CPU Threads Slider -->
    <g transform="translate(15, 175)">
      <text x="0" y="0" font-size="10" font-weight="bold" fill="#848E9C">Parallel Compiler Threads: 16 Cores</text>
      <rect x="0" y="8" width="310" height="6" rx="3" fill="#2B313A" />
      <rect x="0" y="8" width="280" height="6" rx="3" fill="#F0B90B" />
      <circle cx="280" cy="11" r="7" fill="#F0B90B" filter="url(#glowYellow)" />
    </g>

    <!-- BUILD RELEASE & RUN TESTS BUTTONS -->
    <g transform="translate(15, 215)">
      <rect x="0" y="0" width="148" height="42" rx="4" fill="#0ECB81" />
      <text x="74" y="26" font-size="13" font-weight="900" fill="#0B0E11" text-anchor="middle">BUILD RELEASE 🚀</text>

      <rect x="162" y="0" width="148" height="42" rx="4" fill="#F0B90B" />
      <text x="236" y="26" font-size="13" font-weight="900" fill="#0B0E11" text-anchor="middle">RUN TESTS ⚡</text>
    </g>

    <!-- Deployment Status Info -->
    <g transform="translate(15, 280)" font-size="10" font-weight="bold" fill="#848E9C">
      <text y="0">Resource Allocation: <tspan fill="#EAECEF">64GB RAM / 128 K8s Pods</tspan></text>
      <text y="20">Cluster Health: <tspan fill="#0ECB81">100% HEALTHY (0.1ms SLO)</tspan></text>
      <text y="40">Threat Mitigation: <tspan fill="#F0B90B">4,892 Attacks Blocked/Day</tspan></text>
    </g>
  </g>

  <!-- RIGHT: DEVOPS & CYBERSECURITY POSITION MATRIX (WIDTH 500) -->
  <g transform="translate(385, 65)" font-family="'JetBrains Mono', monospace">
    <rect x="0" y="0" width="490" height="420" rx="6" fill="#181A20" stroke="#2B313A" stroke-width="1" />
    <text x="15" y="22" font-size="11" font-weight="900" fill="#F0B90B">🛡️ DEVOPS INFRASTRUCTURE &amp; SECURITY MATRIX</text>
    <line x1="15" y1="30" x2="475" y2="30" stroke="#2B313A" stroke-width="1" />

    <g font-size="11" font-weight="bold" transform="translate(15, 50)">
      <text x="0" y="0" fill="#EAECEF">Docker Containers:</text>
      <text x="180" y="0" fill="#0ECB81">42 RUNNING</text>
      <text x="330" y="0" fill="#EAECEF">CPU 12.4%</text>

      <text x="0" y="32" fill="#EAECEF">Kubernetes Cluster:</text>
      <text x="180" y="32" fill="#0ECB81">128 PODS HEALTHY</text>
      <text x="330" y="32" fill="#EAECEF">RAM 32GB</text>

      <text x="0" y="64" fill="#EAECEF">AWS (us-east-1):</text>
      <text x="180" y="64" fill="#0ECB81">99.99% UP</text>
      <text x="330" y="64" fill="#0ECB81">READY</text>

      <text x="0" y="96" fill="#EAECEF">Cloudflare Edge:</text>
      <text x="180" y="96" fill="#0ECB81">Global Workers</text>
      <text x="330" y="96" fill="#0ECB81">0.4ms Latency</text>

      <text x="0" y="128" fill="#EAECEF">OWASP &amp; Burp Shield:</text>
      <text x="180" y="128" fill="#0ECB81">SQLi/XSS Shield</text>
      <text x="330" y="128" fill="#0ECB81">0 CVE VULN</text>

      <text x="0" y="160" fill="#EAECEF">Suricata IDS/IPS:</text>
      <text x="180" y="160" fill="#0ECB81">DDoS Filter Active</text>
      <text x="330" y="160" fill="#0ECB81">HARDENED</text>
    </g>

    <!-- PACKET STREAM BAR -->
    <g transform="translate(15, 240)">
      <text x="0" y="0" font-size="10" font-weight="900" fill="#848E9C">NETWORK PACKET STREAM (gRPC / WEBSOCKET / KAFKA)</text>
      <rect x="0" y="10" width="460" height="32" rx="4" fill="#1E2329" stroke="#2B313A" stroke-width="1" />
      
      <g transform="translate(15, 18)">
        <circle cx="10" cy="8" r="5" fill="#0ECB81" filter="url(#glowGreen)">
          <animate attributeName="cx" values="10;430;10" dur="1.2s" repeatCount="indefinite" />
        </circle>
        <circle cx="120" cy="8" r="5" fill="#F0B90B" filter="url(#glowYellow)">
          <animate attributeName="cx" values="120;430;10" dur="1.0s" repeatCount="indefinite" />
        </circle>
        <circle cx="250" cy="8" r="5" fill="#0ECB81">
          <animate attributeName="cx" values="250;430;10" dur="1.4s" repeatCount="indefinite" />
        </circle>
      </g>
    </g>

    <!-- CI/CD BUILD SUCCESS STATUS -->
    <g transform="translate(15, 305)" font-size="10" font-weight="bold">
      <rect x="0" y="0" width="460" height="40" rx="4" fill="#1E2329" stroke="#0ECB81" stroke-width="1" />
      <text x="15" y="24" fill="#0ECB81">
        [✓] Cargo Build Passed (0.42s) • [✓] Unit Tests 100% (412 Passed) • [✓] 98.4% Coverage
      </text>
    </g>
  </g>
</svg>
