<svg xmlns="http://www.w3.org/2000/svg" viewBox="0 0 900 460" width="100%" height="460">
  <defs>
    <linearGradient id="bgGrad" x1="0%" y1="0%" x2="100%" y2="100%">
      <stop offset="0%" stop-color="#05070A" />
      <stop offset="50%" stop-color="#0F172A" />
      <stop offset="100%" stop-color="#020407" />
    </linearGradient>

    <filter id="glowGreen" x="-20%" y="-20%" width="140%" height="140%">
      <feGaussianBlur stdDeviation="4" result="blur" />
      <feMerge><feMergeNode in="blur" /><feMergeNode in="SourceGraphic" /></feMerge>
    </filter>
    <filter id="glowCyan" x="-20%" y="-20%" width="140%" height="140%">
      <feGaussianBlur stdDeviation="4" result="blur" />
      <feMerge><feMergeNode in="blur" /><feMergeNode in="SourceGraphic" /></feMerge>
    </filter>

    <pattern id="grid" width="30" height="30" patternUnits="userSpaceOnUse">
      <path d="M 30 0 L 0 0 0 30" fill="none" stroke="#00E5FF" stroke-width="0.5" stroke-dasharray="2,2" opacity="0.15" />
    </pattern>
  </defs>

  <rect width="900" height="460" rx="10" fill="url(#bgGrad)" stroke="#00FF66" stroke-width="1.6" filter="url(#glowGreen)" />
  <rect width="900" height="460" rx="10" fill="url(#grid)" />

  <!-- TOP TITLE BAR -->
  <rect x="15" y="14" width="870" height="36" rx="6" fill="#030A14" stroke="#00FF66" stroke-width="1" />
  <circle cx="35" cy="32" r="5" fill="#FF0055" />
  <circle cx="52" cy="32" r="5" fill="#FF9900" />
  <circle cx="69" cy="32" r="5" fill="#00FF66" />
  <text x="90" y="36" font-family="'JetBrains Mono', monospace" font-size="12" font-weight="900" fill="#00FF66" letter-spacing="1">
    🐙 GITHUB OPEN SOURCE TELEMETRY &amp; OPERATING SYSTEM MATRIX
  </text>
  <circle cx="865" cy="32" r="4" fill="#00FF66" filter="url(#glowGreen)">
    <animate attributeName="opacity" values="1;0.2;1" dur="0.8s" repeatCount="indefinite" />
  </circle>

  <!-- LEFT PANEL: GITHUB QUANT METRICS (WIDTH 410) -->
  <g transform="translate(25, 70)" font-family="'JetBrains Mono', monospace">
    <text x="0" y="0" font-size="11" font-weight="900" fill="#00E5FF">🐙 GITHUB DEVELOPER TELEMETRY &amp; ACHIEVEMENTS</text>
    <line x1="0" y1="10" x2="410" y2="10" stroke="#1E293B" stroke-width="1" />

    <g transform="translate(0, 30)" font-size="11" font-weight="bold">
      <text x="0" y="0" fill="#F8FAFC">Total Commits (2026):</text>
      <text x="210" y="0" fill="#00FF66">3,482 COMMITS</text>

      <text x="0" y="24" fill="#F8FAFC">Pull Requests Merged:</text>
      <text x="210" y="0" fill="#00E5FF">184 PRs (Pull Shark 🦈)</text>

      <text x="0" y="48" fill="#F8FAFC">Discussions Answered:</text>
      <text x="210" y="0" fill="#9D00FF">42 (Galaxy Brain 🧠)</text>

      <text x="0" y="72" fill="#F8FAFC">Repository Stars:</text>
      <text x="210" y="0" fill="#FF9900">328 ⭐ (Starstruck)</text>

      <text x="0" y="96" fill="#F8FAFC">Global Followers:</text>
      <text x="210" y="0" fill="#00FF66">512 DEVELOPERS</text>

      <text x="0" y="120" fill="#F8FAFC">GitHub Achievements:</text>
      <text x="210" y="0" fill="#00E5FF">6 UNLOCKED (Pair Extraordinaire 👯)</text>
    </g>
  </g>

  <!-- RIGHT PANEL: PACKAGE REGISTRY DOWNLOADS & OS RUNTIMES (WIDTH 410) -->
  <g transform="translate(465, 70)" font-family="'JetBrains Mono', monospace">
    <text x="0" y="0" font-size="11" font-weight="900" fill="#FF9900">📦 PACKAGE REGISTRY &amp; OPERATING SYSTEM MATRIX</text>
    <line x1="0" y1="10" x2="410" y2="10" stroke="#1E293B" stroke-width="1" />

    <g transform="translate(0, 30)" font-size="11" font-weight="bold">
      <text x="0" y="0" fill="#CB3837">NPM Registry Downloads:</text>
      <text x="230" y="0" fill="#00FF66">1.4M / MONTH</text>

      <text x="0" y="24" fill="#E43B29">Crates.io (Rust Packages):</text>
      <text x="230" y="0" fill="#00E5FF">850K / MONTH</text>

      <text x="0" y="48" fill="#3775A9">PyPI (Python Packages):</text>
      <text x="230" y="0" fill="#00FF66">2.1M / MONTH</text>

      <!-- OS Status Matrix -->
      <text x="0" y="80" fill="#F8FAFC">Linux Kernel (6.12 LTS):</text>
      <text x="230" y="0" fill="#00FF66">PRIMARY [OPTIMIZED]</text>

      <text x="0" y="104" fill="#F8FAFC">Ubuntu / Arch / Debian:</text>
      <text x="230" y="0" fill="#00E5FF">CONTAINER HOSTS</text>

      <text x="0" y="128" fill="#F8FAFC">Windows Server / macOS:</text>
      <text x="230" y="0" fill="#00FF66">CROSS-COMPILED AOT</text>
    </g>
  </g>

  <!-- BOTTOM HEATMAP: CONTRIBUTION & CODE COMMITS MATRIX -->
  <g transform="translate(25, 260)" font-family="'JetBrains Mono', monospace">
    <text x="0" y="0" font-size="11" font-weight="900" fill="#00FF66">
      🟩 QUANT CODE COMMIT HEATMAP MATRIX (52 WEEKS HIGH-FREQUENCY INGESTION)
    </text>
    <line x1="0" y1="10" x2="850" y2="10" stroke="#1E293B" stroke-width="1" />

    <!-- Heatmap Blocks Simulation -->
    <g transform="translate(0, 25)">
      <!-- Render 32 Columns of Heatmap Cells -->
      <g transform="translate(0, 0)">
        <rect x="0" y="0" width="22" height="22" rx="3" fill="#00FF66" filter="url(#glowGreen)" />
        <rect x="0" y="26" width="22" height="22" rx="3" fill="#00FF66" opacity="0.8" />
        <rect x="0" y="52" width="22" height="22" rx="3" fill="#00E5FF" filter="url(#glowCyan)" />
        <rect x="0" y="78" width="22" height="22" rx="3" fill="#00FF66" opacity="0.9" />

        <rect x="26" y="0" width="22" height="22" rx="3" fill="#00E5FF" />
        <rect x="26" y="26" width="22" height="22" rx="3" fill="#00FF66" filter="url(#glowGreen)" />
        <rect x="26" y="52" width="22" height="22" rx="3" fill="#00FF66" opacity="0.7" />
        <rect x="26" y="78" width="22" height="22" rx="3" fill="#00FF66" opacity="0.9" />

        <rect x="52" y="0" width="22" height="22" rx="3" fill="#00FF66" opacity="0.8" />
        <rect x="52" y="26" width="22" height="22" rx="3" fill="#00E5FF" filter="url(#glowCyan)" />
        <rect x="52" y="52" width="22" height="22" rx="3" fill="#00FF66" filter="url(#glowGreen)" />
        <rect x="52" y="78" width="22" height="22" rx="3" fill="#00FF66" opacity="0.9" />

        <rect x="78" y="0" width="22" height="22" rx="3" fill="#00FF66" filter="url(#glowGreen)" />
        <rect x="78" y="26" width="22" height="22" rx="3" fill="#00FF66" opacity="0.9" />
        <rect x="78" y="52" width="22" height="22" rx="3" fill="#00E5FF" opacity="0.8" />
        <rect x="78" y="78" width="22" height="22" rx="3" fill="#00FF66" filter="url(#glowGreen)" />

        <rect x="104" y="0" width="22" height="22" rx="3" fill="#00FF66" opacity="0.9" />
        <rect x="104" y="26" width="22" height="22" rx="3" fill="#00E5FF" filter="url(#glowCyan)" />
        <rect x="104" y="52" width="22" height="22" rx="3" fill="#00FF66" opacity="0.8" />
        <rect x="104" y="78" width="22" height="22" rx="3" fill="#00FF66" filter="url(#glowGreen)" />

        <!-- Repeat Grid across -->
        <g transform="translate(130, 0)">
          <rect x="0" y="0" width="22" height="22" rx="3" fill="#00FF66" filter="url(#glowGreen)" />
          <rect x="0" y="26" width="22" height="22" rx="3" fill="#00FF66" opacity="0.8" />
          <rect x="0" y="52" width="22" height="22" rx="3" fill="#00E5FF" filter="url(#glowCyan)" />
          <rect x="0" y="78" width="22" height="22" rx="3" fill="#00FF66" opacity="0.9" />

          <rect x="26" y="0" width="22" height="22" rx="3" fill="#00E5FF" />
          <rect x="26" y="26" width="22" height="22" rx="3" fill="#00FF66" filter="url(#glowGreen)" />
          <rect x="26" y="52" width="22" height="22" rx="3" fill="#00FF66" opacity="0.7" />
          <rect x="26" y="78" width="22" height="22" rx="3" fill="#00FF66" opacity="0.9" />

          <rect x="52" y="0" width="22" height="22" rx="3" fill="#00FF66" opacity="0.8" />
          <rect x="52" y="26" width="22" height="22" rx="3" fill="#00E5FF" filter="url(#glowCyan)" />
          <rect x="52" y="52" width="22" height="22" rx="3" fill="#00FF66" filter="url(#glowGreen)" />
          <rect x="52" y="78" width="22" height="22" rx="3" fill="#00FF66" opacity="0.9" />

          <rect x="78" y="0" width="22" height="22" rx="3" fill="#00FF66" filter="url(#glowGreen)" />
          <rect x="78" y="26" width="22" height="22" rx="3" fill="#00FF66" opacity="0.9" />
          <rect x="78" y="52" width="22" height="22" rx="3" fill="#00E5FF" opacity="0.8" />
          <rect x="78" y="78" width="22" height="22" rx="3" fill="#00FF66" filter="url(#glowGreen)" />
        </g>

        <g transform="translate(260, 0)">
          <rect x="0" y="0" width="22" height="22" rx="3" fill="#00FF66" filter="url(#glowGreen)" />
          <rect x="0" y="26" width="22" height="22" rx="3" fill="#00FF66" opacity="0.8" />
          <rect x="0" y="52" width="22" height="22" rx="3" fill="#00E5FF" filter="url(#glowCyan)" />
          <rect x="0" y="78" width="22" height="22" rx="3" fill="#00FF66" opacity="0.9" />

          <rect x="26" y="0" width="22" height="22" rx="3" fill="#00E5FF" />
          <rect x="26" y="26" width="22" height="22" rx="3" fill="#00FF66" filter="url(#glowGreen)" />
          <rect x="26" y="52" width="22" height="22" rx="3" fill="#00FF66" opacity="0.7" />
          <rect x="26" y="78" width="22" height="22" rx="3" fill="#00FF66" opacity="0.9" />

          <rect x="52" y="0" width="22" height="22" rx="3" fill="#00FF66" opacity="0.8" />
          <rect x="52" y="26" width="22" height="22" rx="3" fill="#00E5FF" filter="url(#glowCyan)" />
          <rect x="52" y="52" width="22" height="22" rx="3" fill="#00FF66" filter="url(#glowGreen)" />
          <rect x="52" y="78" width="22" height="22" rx="3" fill="#00FF66" opacity="0.9" />

          <rect x="78" y="0" width="22" height="22" rx="3" fill="#00FF66" filter="url(#glowGreen)" />
          <rect x="78" y="26" width="22" height="22" rx="3" fill="#00FF66" opacity="0.9" />
          <rect x="78" y="52" width="22" height="22" rx="3" fill="#00E5FF" opacity="0.8" />
          <rect x="78" y="78" width="22" height="22" rx="3" fill="#00FF66" filter="url(#glowGreen)" />
        </g>

        <g transform="translate(390, 0)">
          <rect x="0" y="0" width="22" height="22" rx="3" fill="#00FF66" filter="url(#glowGreen)" />
          <rect x="0" y="26" width="22" height="22" rx="3" fill="#00FF66" opacity="0.8" />
          <rect x="0" y="52" width="22" height="22" rx="3" fill="#00E5FF" filter="url(#glowCyan)" />
          <rect x="0" y="78" width="22" height="22" rx="3" fill="#00FF66" opacity="0.9" />

          <rect x="26" y="0" width="22" height="22" rx="3" fill="#00E5FF" />
          <rect x="26" y="26" width="22" height="22" rx="3" fill="#00FF66" filter="url(#glowGreen)" />
          <rect x="26" y="52" width="22" height="22" rx="3" fill="#00FF66" opacity="0.7" />
          <rect x="26" y="78" width="22" height="22" rx="3" fill="#00FF66" opacity="0.9" />

          <rect x="52" y="0" width="22" height="22" rx="3" fill="#00FF66" opacity="0.8" />
          <rect x="52" y="26" width="22" height="22" rx="3" fill="#00E5FF" filter="url(#glowCyan)" />
          <rect x="52" y="52" width="22" height="22" rx="3" fill="#00FF66" filter="url(#glowGreen)" />
          <rect x="52" y="78" width="22" height="22" rx="3" fill="#00FF66" opacity="0.9" />

          <rect x="78" y="0" width="22" height="22" rx="3" fill="#00FF66" filter="url(#glowGreen)" />
          <rect x="78" y="26" width="22" height="22" rx="3" fill="#00FF66" opacity="0.9" />
          <rect x="78" y="52" width="22" height="22" rx="3" fill="#00E5FF" opacity="0.8" />
          <rect x="78" y="78" width="22" height="22" rx="3" fill="#00FF66" filter="url(#glowGreen)" />
        </g>
      </g>
    </g>
  </g>
</svg>
